<svg xmlns="http://www.w3.org/2000/svg" viewBox="0 0 512 512">
  <defs>
    <linearGradient id="ground" x1="0" y1="0" x2="0" y2="1"><stop offset="0" stop-color="#23201A"/><stop offset="1" stop-color="#100F0C"/></linearGradient>
    <linearGradient id="cap" x1="0" y1="0" x2="1" y2="1"><stop offset="0" stop-color="#B7CDF2"/><stop offset="1" stop-color="#5B86C8"/></linearGradient>
    <radialGradient id="glow" cx="50%" cy="50%" r="50%"><stop offset="0" stop-color="#B7CDF2" stop-opacity=".3"/><stop offset="1" stop-color="#B7CDF2" stop-opacity="0"/></radialGradient>
  </defs>
  <rect width="512" height="512" fill="url(#ground)"/>
  <circle cx="256" cy="190" r="150" fill="url(#glow)"/>
  <g transform="translate(256 256) scale(14.6) translate(-12 -14.2)" fill="none" stroke-width="1.9" stroke-linejoin="round" stroke-linecap="round">
    <path d="M20.4 24.4 12 28.8 3.6 24.4" stroke="#4F6D9F" stroke-opacity=".14"/>
    <path d="M20.4 21.6 12 26 3.6 21.6" stroke="#4F6D9F" stroke-opacity=".3"/>
    <path d="M20.4 18.6 12 23 3.6 18.6" stroke="#4F6D9F" stroke-opacity=".55"/>
    <path d="M20.4 15.4 12 19.8 3.6 15.4" stroke="#5B86C8"/>
    <path d="M20.4 12 12 16.4 3.6 12" stroke="#8FBF74"/>
    <path d="M12 2.6 20.4 7 12 11.4 3.6 7z" fill="url(#cap)" stroke="#B7CDF2" stroke-width="1.2"/>
    <path d="M12 5.3 17.2 7 12 8.7 6.8 7z" fill="#171511"/>
  </g>
</svg>
